<svg width="220" height="82" viewBox="0 0 220 82" fill="none" xmlns="http://www.w3.org/2000/svg">
<path fill-rule="evenodd" clip-rule="evenodd" d="M90.3521 32.2583C90.4777 32.3804 90.7288 32.5027 90.98 32.5027C91.3566 32.5027 91.9845 32.3804 92.6124 31.8915C92.8636 31.7692 92.9892 31.6469 93.1146 31.4024C93.4914 31.0356 93.7425 30.6689 93.8681 30.3021C94.1193 29.813 94.1193 29.3241 93.9937 28.835C94.1193 28.835 93.9937 28.7127 93.9937 28.5904C93.617 28.1015 92.8636 28.1015 92.3613 28.2238C92.1101 28.2238 91.7334 28.4682 91.3566 28.7127C90.7288 29.0795 90.1011 29.813 89.9755 30.4244C89.9755 30.5466 89.8499 30.7912 89.8499 30.9135C89.8499 31.4024 89.7243 31.8915 90.3521 32.2583Z" fill="white"/>
<path fill-rule="evenodd" clip-rule="evenodd" d="M67.498 50.4752C67.247 50.8418 66.8702 51.2087 66.6191 51.4532C66.1169 52.0646 65.74 52.309 65.2378 52.6758C64.8611 53.0426 64.4843 53.2871 64.1077 53.4092C63.6054 53.6538 62.9775 53.8983 62.3497 53.7761C62.2241 53.7761 62.0985 53.6538 61.973 53.4092C61.7218 52.9203 61.973 52.309 62.0985 51.82C62.3497 51.3309 62.6009 50.8418 62.8519 50.3529C68.8794 43.0175 74.9068 35.6819 80.9342 28.2242H76.6648L60.4661 49.3749C60.215 49.7415 59.9638 50.1084 59.5872 50.3529C59.336 50.7197 58.9593 50.9641 58.7081 51.3309C58.2058 51.9423 57.7036 52.309 57.3268 52.6758C56.8245 53.0426 56.4478 53.4092 56.0712 53.5315C55.4433 53.7761 54.8155 54.0206 54.1876 53.7761C53.6853 53.4092 53.6853 52.9203 53.8108 52.4312C54.062 51.6977 54.5642 50.8418 55.1921 50.1084L65.9913 36.7822H61.973L53.5597 48.03C52.4296 49.6193 51.6761 51.0864 51.8017 52.6758C51.8017 52.9203 51.9273 53.1649 51.9273 53.4092C52.0528 53.6538 52.1784 53.8983 52.304 54.1429C52.6807 54.632 53.1831 54.8764 53.6853 54.9986C55.4433 55.2432 57.2013 54.5097 59.0849 52.4312C59.336 52.1867 59.5872 51.82 59.8382 51.5755C59.7126 52.4312 59.4616 53.2871 59.9638 54.2652C60.4661 54.8764 60.9683 54.9986 61.4706 55.1209C62.6009 55.3655 63.8564 54.9986 64.9867 54.0206C65.9913 53.2871 66.9958 52.309 67.8748 51.3309C67.7492 51.6977 67.7492 52.0646 67.7492 52.4312C67.7492 52.6758 67.7492 52.798 67.7492 52.9203C67.7492 53.1649 67.8748 53.2871 67.8748 53.4092C67.8748 53.5315 68.0003 53.8983 68.2515 54.1429C68.6282 54.5097 68.8794 54.632 69.256 54.7541C69.8839 54.8764 70.763 54.8764 71.3908 54.632C72.1441 54.3874 72.8976 54.0206 73.6511 53.2871C74.4045 52.5535 75.0324 51.9423 75.6601 51.2087C75.5347 52.1867 75.1578 53.0426 75.7857 54.0206C75.9113 54.1429 76.0369 54.3874 76.288 54.5097C76.9158 54.8764 77.6693 54.9986 78.4228 54.8764C79.1762 54.7541 80.3064 54.1429 81.3109 53.4092C81.6875 53.1649 81.9388 52.9203 82.1898 52.6758C82.6922 52.1867 83.1945 51.6977 83.5711 51.2087C83.9478 52.0646 83.9478 53.0426 84.5757 54.0206C84.7013 54.2652 84.9525 54.3874 85.2035 54.5097C85.5803 54.7541 86.0826 54.7541 86.4593 54.7541C87.2127 54.7541 88.2172 54.3874 89.2219 53.6538C90.2264 52.9203 90.9799 52.0646 91.9844 51.2087C91.8588 52.1867 91.6078 53.0426 92.3611 54.1429C92.8633 54.632 93.3658 54.632 93.868 54.7541C94.6213 54.7541 95.3748 54.5097 96.0027 54.1429C96.2539 54.0206 96.7561 53.6538 97.1328 53.1649C97.384 52.9203 97.635 52.6758 97.8863 52.4312C98.2629 52.0646 98.3885 51.82 98.6397 51.5755L109.188 39.1052C109.439 38.7384 109.816 38.4939 110.067 38.127C110.569 37.7604 110.946 37.5158 111.197 37.2713C111.574 37.149 112.076 36.9045 112.578 37.3936C113.08 37.8827 112.955 38.3716 112.829 38.9829C112.578 39.8387 111.699 40.6945 111.197 41.4281C107.681 45.8293 104.039 50.1084 100.523 54.5097C101.905 54.5097 103.286 54.5097 104.542 54.5097L114.085 42.2838C114.838 41.3058 115.843 40.4501 116.847 39.3496C117.726 38.4939 118.605 37.8827 119.484 37.3936C119.736 37.2713 119.987 37.2713 120.238 37.2713C120.489 37.2713 120.74 37.2713 120.866 37.5158C120.991 37.6381 120.991 37.8827 121.117 38.0048C121.117 38.3716 120.991 38.9829 120.615 39.5942C120.238 40.0832 119.987 40.6945 119.484 41.1835C115.843 45.707 112.076 50.2306 108.434 54.7541C109.69 54.7541 111.071 54.7541 112.327 54.7541C115.717 50.4752 119.108 46.1961 122.498 41.7949C122.624 41.6726 122.875 41.3058 123.126 41.0613C123.628 40.5722 124.13 39.8387 124.884 39.1052C125.261 38.7384 125.637 38.3716 126.014 38.2493C126.516 38.0048 127.019 37.6381 127.647 37.7604C127.898 37.7604 128.023 37.7604 128.149 38.0048C128.274 38.127 128.274 38.2493 128.274 38.3716C128.274 38.4939 128.274 38.7384 128.149 38.9829C128.149 39.1052 128.023 39.3496 128.023 39.4719C127.898 39.8387 127.521 40.2055 127.27 40.6945C125.888 42.4061 124.507 43.9955 123.252 45.707C123.126 45.8293 123 46.0738 122.875 46.1961C122.749 46.3184 122.624 46.5629 122.498 46.8075C122.373 47.0518 122.121 47.4187 121.87 47.7855C121.619 48.1523 121.494 48.519 121.368 48.8858C121.117 49.4972 120.866 49.8638 120.74 50.3529C120.489 51.2087 120.238 52.1867 120.74 53.2871C120.866 53.5315 120.991 53.6538 121.117 53.8983C121.745 54.5097 122.498 54.7541 123.252 54.8764C123.503 54.8764 123.754 54.8764 124.005 54.8764C124.382 54.8764 124.633 54.8764 124.884 54.7541C125.01 54.7541 125.135 54.632 125.386 54.632C125.888 54.5097 126.516 54.1429 127.144 53.7761C128.023 53.2871 128.902 52.4312 129.781 51.4532C130.032 51.0864 130.284 50.8418 130.66 50.2306C131.037 49.6193 131.665 48.8858 132.167 48.03C133.8 45.4626 134.804 43.1396 135.557 40.6945C135.809 39.8387 135.934 38.9829 136.06 38.3716C136.185 37.7604 136.185 37.3936 136.311 37.0267C136.437 35.9264 136.562 34.7039 136.311 33.6036C136.185 32.6255 135.934 31.6474 135.557 30.6693C135.432 30.4248 135.306 30.0581 135.181 29.9359C134.93 29.4468 134.679 29.2022 134.302 28.8356C134.176 28.7133 133.925 28.4687 133.8 28.3465C133.548 28.1019 133.297 27.8574 132.921 27.7351C131.539 26.7571 130.158 26.3904 128.651 26.3904C127.521 26.3904 126.14 26.5125 124.884 27.1239C124.507 27.2462 124.005 27.4907 123.754 27.613C123 27.3684 122.875 27.4907 122.624 27.613C122.121 27.9797 121.494 28.4687 121.242 28.9578C120.615 30.0581 120.238 31.2807 120.615 32.6255C120.74 32.8699 120.866 33.1145 120.991 33.359C121.117 33.6036 121.368 33.7258 121.494 33.8481C121.745 34.0927 121.87 34.0927 122.121 34.2148C122.498 34.3371 122.875 34.4593 123.377 34.4593C123.879 34.4593 124.507 34.4593 125.01 34.2148C125.261 34.0927 125.386 34.0927 125.637 33.8481C125.888 33.6036 126.265 33.359 126.642 32.9922C127.019 32.6255 127.27 32.2587 127.521 31.7696C127.772 31.2807 127.898 30.9139 128.023 30.4248L127.898 30.3025C127.647 30.9139 127.27 31.403 126.768 32.0142C126.265 32.5033 125.637 32.9922 125.135 33.2368C124.758 33.359 124.507 33.4813 124.256 33.4813C123.754 33.6036 123.628 33.6036 123.252 33.6036C122.875 33.6036 122.624 33.4813 122.247 33.359C122.121 33.359 122.121 33.2368 121.996 33.1145C121.745 32.8699 121.494 32.381 121.494 32.0142C121.368 31.1584 121.619 30.0581 122.373 29.2022C122.624 28.9578 122.875 28.7133 123.126 28.4687C123.377 28.2242 123.628 28.1019 124.005 27.8574C125.763 27.0016 127.647 26.7571 129.53 27.1239C130.409 27.3684 131.414 27.7351 132.293 28.4687C132.418 28.591 132.669 28.8356 132.795 28.9578C132.921 29.0799 133.046 29.3245 133.297 29.569C133.548 30.0581 133.925 30.7916 134.176 31.6474C134.427 32.381 134.553 33.1145 134.553 33.8481C134.553 34.2148 134.553 34.4593 134.553 34.9484C134.553 35.8042 134.553 36.7822 134.427 37.7604C134.427 38.2493 134.302 38.7384 134.176 39.3496C133.925 40.4501 133.548 41.917 133.046 43.1396C132.795 43.751 132.544 44.3623 132.167 45.0958C131.79 45.8293 131.414 46.6852 130.911 47.4187C130.409 48.2744 129.907 49.0081 129.53 49.4972C129.153 49.9861 128.902 50.3529 128.651 50.5974C128.4 50.8418 128.149 51.2087 127.898 51.4532C127.144 52.3089 126.391 52.798 125.637 53.1649C125.135 53.4092 124.507 53.6538 124.005 53.6538C123.754 53.6538 123.377 53.6538 123.252 53.6538C123 53.6538 122.875 53.6538 122.749 53.5315C121.996 53.0426 122.121 52.4312 122.247 51.82C122.373 51.5755 122.498 51.2087 122.749 50.9641C122.875 50.8418 123 50.5974 123.503 49.9861C124.005 49.2526 125.01 48.1523 125.889 46.9297C127.144 45.2181 128.274 43.5064 129.153 41.7949C129.405 41.3058 129.53 40.939 129.656 40.5722C130.032 39.4719 130.158 38.4939 129.405 37.3936C129.153 37.0267 128.777 36.9045 128.526 36.7822C127.898 36.5378 127.27 36.6601 126.642 36.9045C126.391 37.0267 126.014 37.149 125.637 37.3936C125.386 37.5158 125.135 37.6381 124.884 37.7604C124.382 38.127 123.754 38.6161 123.126 39.2275C122.749 39.5942 122.372 39.8387 122.121 40.2055C122.247 39.7164 122.247 39.3496 122.373 38.8607C122.373 38.6161 122.373 38.3716 122.373 38.2493C122.373 37.7604 122.372 37.5158 122.121 37.149C122.121 37.0267 121.996 36.9045 121.87 36.9045C121.619 36.6601 121.494 36.5378 121.368 36.5378C121.242 36.4155 120.991 36.4155 120.615 36.4155C119.736 36.2933 118.857 36.7822 117.978 37.2713C117.099 37.8826 115.968 38.6161 115.089 39.5942C114.838 39.8387 114.462 40.2055 114.21 40.5722C114.462 39.7164 114.587 38.9829 114.462 38.127C114.336 37.7604 114.21 37.3936 113.959 37.0267C112.955 36.0487 111.825 36.4155 110.569 36.9045C110.067 37.149 109.564 37.5158 109.062 38.0048C105.044 42.6507 101.151 47.4187 97.1328 52.1867C96.8817 52.4312 96.6305 52.6758 96.3793 52.9203C96.1283 53.1649 95.8771 53.2871 95.7515 53.4092C95.3748 53.6538 94.9981 53.7761 94.6213 53.6538C94.4959 53.6538 94.2447 53.5315 94.1191 53.4092C93.868 53.0426 93.868 52.6758 93.9935 52.309C94.1191 51.9423 94.2447 51.6977 94.3703 51.3309C94.4959 51.0864 94.6213 50.9641 94.6213 50.7197C94.6213 50.7197 94.7469 50.5974 96.6305 48.2744C98.5141 45.9515 102.281 41.3058 105.923 36.6601C104.667 36.6601 103.411 36.6601 102.784 36.6601C102.156 36.6601 102.156 36.6601 102.156 36.6601C101.653 37.2713 101.277 37.7604 100.774 38.3716C100.9 37.8826 100.9 37.3936 100.398 36.9045C100.147 36.6601 99.5186 36.4155 99.2676 36.4155C99.142 36.4155 99.142 36.4155 98.8908 36.4155C98.5141 36.4155 97.6351 36.5378 97.0072 36.6601C96.6305 36.7822 96.3793 36.9045 95.8771 37.0267C94.9981 37.3936 93.4912 38.0048 92.3611 38.8607C91.4822 39.5942 90.2264 40.5722 88.9707 41.7949C88.3428 42.4061 87.8406 43.1396 87.3383 43.751C86.8361 44.4844 86.3336 45.2181 85.957 45.707C85.5803 46.1961 85.4547 46.5629 85.2035 46.9297C84.5757 48.03 84.0734 49.0081 83.3199 50.1084C83.0689 50.4752 82.8177 50.7197 82.5666 51.0864C82.0644 51.6977 81.5619 52.1867 80.9342 52.5535C80.683 52.798 80.3064 52.9203 80.0552 53.1649C79.5529 53.4092 79.3017 53.5315 78.925 53.5315C78.7994 53.5315 78.5484 53.5315 78.4228 53.5315C78.1716 53.5315 78.046 53.5315 77.7949 53.4092C77.6693 53.4092 77.6693 53.2871 77.5437 53.1649C77.4181 52.9203 77.4181 52.5535 77.5437 52.1867C77.7949 51.5755 78.2972 50.5975 79.0506 49.8638L89.8496 36.5378H85.957C82.441 41.0613 78.925 45.707 75.2835 50.2306C75.1578 50.3529 75.1579 50.4752 74.9068 50.5974C74.7812 50.7197 74.53 50.9641 74.2789 51.2087C74.0277 51.4532 73.7767 51.6977 73.6511 51.9423C72.8976 52.6758 72.2697 53.1649 71.5163 53.5315C71.1396 53.6538 70.3861 53.7761 70.0095 53.5315C69.8839 53.5315 69.7583 53.4092 69.7583 53.4092C69.5072 53.2871 69.6328 53.1649 69.5072 53.1649C69.5072 53.0426 69.3816 52.798 69.5072 52.6758C69.6328 52.1867 70.0095 51.2087 70.6374 50.4752C76.7904 43.1396 82.8177 35.8042 88.8451 28.4687H84.3246L68.0003 49.6193C68.0003 49.8638 67.7492 50.2306 67.498 50.4752ZM85.957 52.4312C85.957 52.309 85.957 52.1867 86.0826 51.9423C86.0826 51.82 86.2082 51.6977 86.3336 51.3309C86.4593 51.0864 86.7105 50.5975 86.8361 50.1084C87.0871 49.6193 87.3383 49.2526 87.715 48.6412C88.0916 48.03 88.5941 47.1741 89.2219 46.4406C89.8496 45.707 90.4775 44.8513 90.9799 44.24C91.4822 43.6287 91.8588 43.1396 92.3611 42.6507C92.7379 42.1616 93.2402 41.6726 93.6168 41.3058C93.9935 40.939 94.3703 40.5722 94.7469 40.2055C95.1238 39.8387 95.5004 39.5942 95.7515 39.2275C96.3793 38.7384 96.7561 38.3716 97.2584 38.127C97.5094 38.0048 97.7607 37.7604 98.0119 37.7604C98.3885 37.5158 98.6397 37.5158 98.8908 37.3936C99.2676 37.2713 99.6443 37.2713 100.021 37.6381C100.398 38.127 100.272 38.4939 100.147 39.1052C100.021 39.5942 99.5186 40.4501 99.142 41.1835C99.0164 41.4281 98.8908 41.5504 98.6397 41.917C98.1373 42.6507 97.384 43.751 96.6305 44.6067L93.1146 49.2526C92.9889 49.3749 92.8633 49.4972 92.7379 49.6193C92.6123 49.7415 92.4867 49.8638 92.2355 50.1084C91.9844 50.3529 91.7332 50.5975 91.4822 50.8418C90.6031 51.6977 89.9752 52.309 89.2219 52.798C88.3428 53.2871 87.4638 53.7761 86.5849 53.5315C86.2082 53.2871 86.3336 53.0426 86.3336 52.798C85.8314 52.6758 85.8314 52.5535 85.957 52.4312Z" fill="white"/>
<path fill-rule="evenodd" clip-rule="evenodd" d="M32.3407 59.0331C31.7129 59.0331 31.085 59.0331 30.2061 59.0331C29.327 59.0331 28.3225 58.9108 27.1924 58.6663C26.1879 58.4217 25.1832 58.0549 24.1787 57.566C23.2997 57.0769 22.4207 56.4657 21.7928 55.8543C21.1649 55.3654 20.7883 54.8763 20.4115 54.3872C20.0348 53.8982 19.6582 53.4092 19.407 52.9201C19.1559 52.4311 18.9047 51.942 18.6535 51.4531C18.2768 50.5972 18.1512 50.2305 17.9002 49.4969C17.7746 49.2524 17.7746 48.8857 17.649 48.5189C19.0303 48.7634 20.5371 48.6411 22.044 48.0298C22.1695 48.0298 22.1695 47.9075 22.2951 47.9075C22.4207 47.7852 22.4207 47.7852 22.6719 47.7852C23.0485 48.0298 23.2997 48.2743 23.6764 48.3966C24.0531 48.5189 24.3043 48.6411 24.6809 48.7634C25.0577 48.7634 25.3088 48.8857 25.6854 48.8857C26.1879 48.8857 26.5645 48.7634 26.9412 48.6411C27.1924 48.6411 27.318 48.5189 27.6946 48.3966C28.0713 48.2743 28.4481 48.0298 28.9504 47.7852C29.327 47.5408 29.8293 47.2963 30.2061 46.9295C30.5827 46.5627 30.9596 46.3183 31.2106 45.9515C31.8385 45.2178 32.4663 44.3621 32.9686 43.5063C33.2198 43.0172 33.4709 42.6504 33.7221 42.1615C34.2243 41.1834 34.601 39.9609 34.9778 38.8604C35.1034 38.2492 35.2289 37.7601 35.3545 37.2712C35.4801 36.293 35.6057 35.6818 35.6057 34.826C35.6057 34.4592 35.6057 34.0924 35.6057 33.7256C35.4801 32.8698 35.3545 32.2586 34.7266 31.525C34.3499 31.2804 33.9731 31.0359 33.7221 30.7915C34.8522 30.3024 35.9823 29.8133 37.1124 29.5689C37.7403 29.4467 38.3682 29.3244 38.7448 29.2021C39.6239 29.0799 40.2518 28.9576 41.0052 28.9576C42.3864 28.9576 43.7677 28.9576 45.2745 29.8133C44.8979 30.0579 44.3956 30.4247 44.0188 30.7915C43.1399 31.4027 42.512 32.2586 41.7585 32.9921C40.8796 33.9701 40.2518 34.9482 39.6239 35.9263C39.2472 36.4153 38.996 36.9044 38.2426 38.3715C37.4893 39.8386 36.2335 42.2837 35.6057 43.6286C34.8522 45.0957 34.7266 45.4624 34.4755 45.9515C33.9731 46.9295 33.5965 48.0298 32.9686 49.1301C32.7176 49.7414 32.3407 50.3526 32.0897 50.7195C31.8385 51.0863 31.7129 51.3308 31.5873 51.4531C31.2106 51.942 30.9596 52.4311 30.4571 52.9201C30.3317 53.0423 30.0805 53.1646 29.9549 53.2869C29.2016 53.1646 28.4481 53.0423 27.569 53.1646C27.4436 53.1646 27.1924 53.2869 27.0668 53.4092C26.9412 53.5314 26.8157 53.6537 26.6901 53.6537C26.4389 53.8982 26.4389 54.0205 26.4389 54.2649C26.4389 54.5095 26.5645 54.6317 26.8157 54.754C27.1924 54.8763 27.569 54.9985 27.9458 55.1208C28.3225 55.1208 28.6992 55.1208 29.076 54.9985C29.4526 54.8763 29.8293 54.754 30.0805 54.6317C30.4571 54.3872 30.5828 54.3872 30.834 54.2649C31.5873 54.3872 32.3407 54.3872 33.0942 54.1426C34.0987 53.8982 34.9778 53.4092 35.8567 52.6757C36.359 52.3089 36.8614 51.8198 37.3637 51.4531C37.6147 51.2086 37.7403 50.964 38.117 50.5972C38.4938 50.2305 38.8704 49.6192 39.3727 49.0078C39.875 48.3966 40.2518 47.7852 40.6284 47.4186C41.0052 46.9295 41.1307 46.6849 41.3819 46.3183C41.6329 45.9515 41.7585 45.7069 42.2608 44.8512C42.7632 43.9952 43.6421 42.5283 44.27 41.5501C44.8979 40.4498 45.4001 39.8386 45.7768 39.105C46.2792 38.3715 46.6559 37.7601 47.0325 37.2712C47.4093 36.7821 47.5349 36.5375 47.786 36.293C48.0372 36.0486 48.1626 35.8041 48.2882 35.5595C48.5395 35.1927 48.7905 34.9482 49.0417 34.7038C49.1673 34.5815 49.2929 34.4592 49.4184 34.337C49.2929 34.7038 48.9161 35.0704 48.7905 35.4373C48.6651 35.6818 48.5395 35.9263 48.4138 36.293C48.2882 36.5375 48.1626 36.7821 47.786 37.6378C47.4093 38.4938 46.7815 39.9609 46.4046 40.8166C46.028 41.7946 45.7768 42.1615 45.6513 42.6504C45.5257 43.1395 45.2745 43.5063 45.1491 43.873C44.8979 44.3621 44.8979 44.4843 44.7723 44.8512C44.1444 46.196 43.5165 47.5408 42.7632 48.8857C42.6376 49.0078 42.6376 49.2523 42.512 49.3746C42.2608 49.8637 41.8842 50.5972 41.5075 51.2086C41.0052 52.0643 40.5028 52.7979 39.7495 53.5314C38.996 53.4092 38.2426 53.2869 37.4891 53.4092C37.3637 53.4092 37.1124 53.5314 36.9868 53.5314C36.7358 53.6537 36.6102 53.6537 36.4846 53.776C36.359 53.8982 36.2335 54.0205 36.2335 54.1426C36.1079 54.3872 36.359 54.754 36.7358 54.9985C36.8614 55.1208 36.9868 55.1208 37.238 55.1208C37.3637 55.1208 37.3637 55.1208 37.6147 55.1208C37.9915 55.1208 38.6194 55.1208 39.2472 54.8763C39.4983 54.754 39.7495 54.6317 40.0006 54.5095C40.2518 54.3872 40.5028 54.5094 40.6284 54.6317C40.8796 54.6317 41.0052 54.6317 41.2563 54.754C42.1354 54.8763 43.5165 54.6317 44.5212 54.0205C45.0235 53.6537 45.6513 53.2869 46.1536 52.7979C46.4046 52.5534 46.6559 52.3089 47.1581 51.8198C47.6604 51.3308 48.2882 50.5972 49.0417 49.7414C49.6696 49.0078 50.423 48.1521 51.8042 46.3183C53.1855 44.4843 55.4458 41.6724 57.0782 39.5941C58.7107 37.5156 59.7152 36.293 60.7198 35.0704C61.7243 33.8479 62.8546 32.6253 63.6079 31.8918C64.3613 31.1582 64.738 30.7915 65.1148 30.4247C65.4915 30.0579 65.8681 29.6912 66.2449 29.4467C66.8728 28.9576 67.2495 28.5908 67.7517 28.3464C68.0029 28.2241 68.254 27.9796 68.6308 27.8573C69.3843 27.4905 70.3888 27.0015 71.2677 26.6347C71.7701 26.5124 72.2724 26.2679 72.649 26.1456C73.4025 25.9011 73.6536 25.9011 74.1558 25.779C74.407 25.779 74.6582 25.779 74.9093 25.6567C75.2861 25.6567 75.6627 25.6567 76.0394 25.6567C76.4162 25.6567 76.7929 25.6567 77.1695 25.6567C77.7974 25.6567 78.1742 25.779 78.6765 25.9011C79.1787 26.0233 79.681 26.2679 80.3089 26.5124C80.9367 26.757 81.439 27.0015 81.9412 27.3682C82.1924 27.4905 82.4435 27.6127 82.5691 27.735C82.9459 27.9796 83.0714 28.1018 83.3226 28.2241C83.4482 28.2241 83.4482 28.1018 83.3226 27.9796C83.0714 27.8573 82.6947 27.6127 82.4435 27.2459C81.5646 26.3902 80.5601 25.779 79.5554 25.2899C79.1787 25.1676 78.8021 24.923 78.4253 24.8008C77.4207 24.4341 76.0394 24.1896 74.9093 24.1896C72.1468 24.1896 69.2587 25.1676 66.496 27.0015C65.9937 27.3682 65.4915 27.6127 64.9892 27.9796C64.487 28.3464 64.1101 28.713 63.3568 29.3244C62.6034 29.9356 61.7243 30.7915 60.8454 31.7695C59.9663 32.7476 59.0874 33.7256 58.2083 34.826C57.3294 36.0486 56.1993 37.3935 55.1948 38.7381C53.6878 40.8166 52.181 42.8949 50.6741 44.9734C50.1718 45.7069 49.6696 46.3183 49.2929 46.8072C48.9161 47.2963 48.6651 47.7852 48.2882 48.1521C47.6604 49.0078 46.9071 49.8637 46.028 50.8417C45.5257 51.3308 45.0235 51.8198 44.6467 52.1866C44.27 52.5534 44.0188 52.6757 43.7677 52.9201C42.6376 53.6537 41.5075 54.2649 40.3774 53.8982C40.8796 53.5314 41.5075 53.0423 42.0098 52.5534C42.2608 52.3089 42.512 52.0643 42.8887 51.6975C43.2655 51.3308 43.6421 50.8417 44.1444 50.3526C44.5212 49.8637 45.0235 49.3746 45.2745 49.0078C45.5257 48.6411 45.7768 48.3966 46.028 48.0298C46.2792 47.7852 46.4046 47.4186 46.6559 46.9295C46.9071 46.4404 47.2837 45.8292 47.5349 45.2178C47.9116 44.6066 48.1626 43.873 48.5395 43.1395C48.9161 42.406 49.2929 41.5501 49.6696 40.6944C50.0462 39.8386 50.423 38.9827 50.6741 38.2492C51.1764 36.9044 51.5532 35.9263 52.0554 34.826L53.6878 31.2804C53.8134 30.9138 53.939 30.6692 54.1901 30.3024C54.3157 29.9356 54.5669 29.6912 54.6923 29.4467C54.9435 29.0799 55.0691 28.8353 55.3202 28.5908C55.4458 28.4685 55.697 28.2241 55.697 28.1018L55.5714 27.9796C55.5714 27.9796 55.4458 27.9796 55.3202 27.9796C54.9435 28.1018 54.3157 28.3464 53.8134 28.5908C52.4321 29.5689 51.0509 30.547 49.7952 32.0141C48.9161 32.8698 48.1626 33.8479 47.5349 34.7038C47.1581 35.1927 46.9071 35.6818 46.5303 36.0486C46.2792 36.4153 46.028 36.7821 45.9024 37.1489C45.6513 37.5156 45.5257 37.8824 44.8979 38.7381C44.27 39.7163 43.3911 41.3056 42.6376 42.6504C41.8842 43.9952 41.2563 44.8512 40.6284 45.8292C40.0006 46.8072 39.3727 47.6631 38.8704 48.3966C38.3682 49.0078 38.117 49.4969 37.7403 49.8637C37.3637 50.2305 37.1124 50.5972 36.7358 50.964C35.6057 52.1866 34.4755 52.7979 33.2198 53.4092C32.843 53.5314 32.3407 53.6537 31.8385 53.6537C31.5873 53.6537 31.4618 53.6537 31.3362 53.6537C32.2151 52.9201 33.0942 52.3089 33.8477 51.3308C34.601 50.4749 35.4801 49.3746 36.1079 48.2743C36.4846 47.7852 36.7358 47.2963 37.4891 45.9515C38.2426 44.6066 39.3727 42.406 40.1262 41.0612C40.754 39.7163 41.0052 39.3495 41.2563 38.9827C41.5075 38.616 41.6329 38.2492 42.0098 37.7601C42.2608 37.2712 42.7632 36.5376 43.1399 35.8041C43.5165 35.0704 43.8933 34.4592 44.27 33.8479C44.6467 33.2367 44.8979 32.8698 45.1491 32.3807C45.0235 32.0141 45.4001 31.6473 45.5257 31.2804C45.9024 30.7915 46.1536 30.547 46.4046 30.1801C46.6559 30.1801 47.0325 30.1801 47.2837 30.0579C47.6604 30.0579 48.0372 30.0579 48.2882 30.0579C48.6651 29.9356 48.9161 29.9356 49.2929 29.8133C49.6696 29.6912 50.1718 29.5689 50.5485 29.2021C51.0509 28.713 51.1764 28.3464 50.7997 27.9796C50.6741 27.6127 50.423 27.6127 50.2974 27.6127C50.0462 27.6127 49.6696 27.6127 49.2929 27.6127C48.7905 27.735 48.0372 28.1018 47.2837 28.4685C47.0325 28.5908 46.7815 28.8353 46.5303 28.9576C46.028 28.5908 45.5257 28.3464 45.0235 28.1018C44.7723 27.9796 44.5212 27.8573 44.0188 27.735C43.5165 27.6127 43.0143 27.3682 42.3864 27.2459C40.0006 26.757 37.3637 27.0015 34.8522 27.735C34.2243 27.9796 33.7221 28.1018 33.2198 28.3464C32.3407 28.713 31.9641 28.9576 31.3362 29.3244C30.9596 29.2021 30.5827 29.2021 30.3317 29.2021C29.9549 29.2021 29.327 29.2021 28.6992 29.3244C27.0668 29.6912 25.4344 30.547 23.802 31.6473C23.1741 32.1364 22.4207 32.7476 21.6672 33.4812C21.2905 33.8479 20.9139 34.2147 20.6627 34.5815C20.286 34.9482 20.0348 35.4373 19.7836 35.8041C19.2813 36.5376 19.0303 37.0266 18.6535 37.6378C18.528 37.8824 18.4024 38.2492 18.2768 38.4938C18.1512 38.7381 18.0256 39.105 17.7746 39.4718C17.3979 40.3275 17.0211 41.4278 16.7701 42.5283C16.3932 44.1175 16.2676 45.4624 16.3932 46.9295C16.1422 46.8072 15.891 46.5627 15.5143 46.3183C15.3887 46.196 15.2631 46.0737 15.1375 45.8292C14.8865 45.3401 14.5096 44.7289 14.2586 44.2398C13.7563 42.8949 13.6307 41.5501 13.7563 40.083C13.8819 39.5941 13.8818 38.9827 14.133 38.4938C14.3842 37.5156 14.7609 36.6598 15.2631 35.8041C15.7654 34.9482 16.2676 34.2147 16.8955 33.4812C17.1467 33.1144 17.5234 32.7476 18.0256 32.2586C19.0303 31.2804 20.7883 29.9356 22.2951 28.8353C23.6764 27.735 25.0577 27.0015 26.4389 26.3902C27.1924 26.0233 27.9458 25.779 28.8248 25.4121C30.7084 24.8008 32.9686 24.0673 35.1034 23.5782C37.6147 23.0893 40.1262 22.8447 42.512 22.8447C44.8979 22.8447 47.4093 23.0893 49.7952 23.8227C50.5485 24.0673 51.302 24.1896 51.8042 24.4341C52.4321 24.6785 52.9343 24.8008 53.3112 25.0453C55.0691 25.6567 56.7015 26.5124 58.4595 27.735L58.7107 27.4905C58.0829 27.0015 57.455 26.5124 56.7015 26.1456C56.0737 25.6567 55.3202 25.2899 54.5669 24.923C53.8134 24.5564 53.0599 24.1896 52.3065 23.945C50.6741 23.3337 48.7905 22.7225 47.0325 22.3556C46.1536 22.2334 45.1491 22.1111 44.3956 21.989C43.5165 21.8667 42.8887 21.8667 42.1354 21.8667C41.3819 21.8667 40.6284 21.8667 39.7495 21.8667C37.8659 21.8667 35.4801 21.989 33.3454 22.4779C32.2151 22.7225 31.2106 22.967 30.2061 23.2115C29.2016 23.4559 28.3225 23.8227 27.318 24.0673C26.4389 24.4341 25.56 24.8008 24.6809 25.1676C23.802 25.5344 22.9229 26.0233 22.1695 26.5124C21.7928 26.6347 21.1649 27.0015 20.5371 27.4905C19.9092 27.9796 19.2814 28.4685 18.7791 28.8353C17.7746 29.5689 17.2723 30.1801 16.7701 30.9138C16.3932 31.2804 16.1422 31.6473 15.7654 32.0141C14.8865 33.3589 14.0074 34.9482 13.3796 36.4153C12.8773 37.7601 12.375 39.3495 12.375 40.8166C12.375 42.1615 12.5006 43.5063 13.254 44.9734C13.5051 45.4624 13.7563 45.8292 14.0074 46.196C14.7609 47.0518 15.6398 47.7852 16.5188 48.1521C16.8955 50.1083 17.3978 52.0643 18.7791 54.0205C19.0303 54.5095 19.407 54.8763 19.9092 55.3654C20.4115 55.8543 21.0393 56.5879 21.7928 57.1991C22.5463 57.8105 23.4252 58.2994 24.3043 58.6663C25.1832 59.0331 26.0623 59.3997 26.6901 59.522C27.318 59.7666 27.6946 59.7666 28.0713 59.8888C28.8248 60.0111 29.5782 60.0111 30.3317 60.1334C30.7084 60.1334 31.085 60.1334 31.7129 60.1334C32.3407 60.1334 33.2198 60.1334 34.2243 60.1334C35.2289 60.1334 36.4846 60.1334 37.7403 60.1334L204.875 60.0111C204.875 59.7666 204.875 59.3997 204.875 59.1554C147.489 59.0331 89.9779 59.0331 32.3407 59.0331ZM30.5828 32.2586C31.2106 31.8918 31.9641 31.525 32.5919 31.2804C32.843 31.4027 33.2198 31.525 33.4709 31.8918C33.7221 32.1364 33.9731 32.503 33.9731 32.7476C34.601 35.0704 34.0987 37.3935 33.3454 39.4718C32.843 41.0612 32.0897 42.5283 31.085 43.9952C30.7084 44.4843 30.2061 45.0957 29.9549 45.3401C29.5782 45.7069 29.4526 45.8292 29.2016 46.0737C28.0713 47.0518 26.9412 47.5408 25.9366 47.6631C25.3088 47.6631 24.5553 47.7852 23.9275 47.4186L25.56 45.9515C26.0623 45.4624 26.5645 44.8512 26.9412 44.3621C27.318 43.7509 27.6946 43.1395 28.0713 42.6504C28.3225 42.1615 28.5737 41.7947 28.6992 41.4278C29.076 40.6944 29.327 39.8386 29.5782 39.2272C29.7038 38.9827 29.7038 38.7381 29.7038 38.4938C29.7038 38.2492 29.8293 38.1269 29.8293 38.0047C29.8293 37.8824 29.7038 37.8824 29.5782 37.8824C29.2016 39.105 28.6992 40.2053 27.9458 41.4278C27.1924 42.7727 26.0623 44.2398 24.9321 45.3401C24.5553 45.7069 24.1787 45.9515 23.9275 46.196C23.6764 46.4404 23.4252 46.5627 23.1741 46.6849C22.7973 46.196 22.5463 45.5846 22.4207 45.0957C22.044 43.5063 22.4207 41.9169 23.0485 40.3275C23.2997 39.5941 23.6764 39.105 24.1787 38.2492C24.4299 37.8824 24.9321 37.2712 25.3088 36.7821C25.6854 36.293 26.1879 35.8041 26.6901 35.315C27.1924 34.826 27.6946 34.4592 28.1969 33.9701C28.8248 33.4812 29.7038 32.7476 30.5828 32.2586ZM17.649 46.5627C17.649 45.8292 17.649 45.2178 17.649 44.3621C17.649 43.873 17.7746 43.384 17.9002 42.7727C18.2768 41.1834 18.7791 39.5941 19.6582 38.1269C20.1604 37.2712 20.6627 36.4153 21.2905 35.5595C21.5416 35.1927 21.7928 34.826 22.1695 34.4592C23.1741 33.3589 24.1787 32.6253 24.9321 32.0141C25.811 31.4027 26.6901 30.9138 27.4436 30.6692C27.8202 30.547 28.3225 30.3024 28.6992 30.3024C29.076 30.1801 29.5782 30.1801 29.9549 30.1801C29.327 30.547 28.8248 30.9138 28.3225 31.4027C27.8202 31.7695 27.318 32.2586 26.8157 32.6253C26.4389 32.9921 26.1879 33.2367 25.811 33.4812C25.56 33.7256 25.3088 33.9701 24.9321 34.337C24.6809 34.5815 24.3043 34.9482 24.0531 35.315C23.802 35.6818 23.4252 36.0486 23.1741 36.4153C22.6719 37.1489 22.2951 37.7601 21.9184 38.2492C21.6672 38.7381 21.4162 39.105 21.2905 39.4718C21.0393 39.9609 20.9139 40.5721 20.7883 41.1834C20.7883 41.4278 20.6627 41.6724 20.6627 41.9169C20.5371 42.406 20.5371 42.895 20.6627 43.6286C20.6627 43.873 20.7883 44.1175 20.7883 44.3621C20.9139 44.8512 21.0393 45.4624 21.2905 45.9515C21.4162 46.196 21.4162 46.3183 21.4162 46.4404C21.5416 46.6849 21.6672 46.9295 21.7928 47.174C21.4162 47.4186 21.1649 47.5408 20.7883 47.6631C19.6582 48.0298 18.528 48.1521 17.5234 47.6631C17.649 47.174 17.649 46.9295 17.649 46.5627Z" fill="white"/>
<path fill-rule="evenodd" clip-rule="evenodd" d="M68.2523 32.503C68.6291 32.503 69.2568 32.3807 69.8846 31.8916C70.1358 31.7693 70.2614 31.647 70.3871 31.4025C70.7637 31.0358 71.0148 30.669 71.1404 30.3022C71.3916 29.8133 71.3916 29.3242 71.266 28.8351C71.266 28.7128 71.1404 28.5907 71.1404 28.4684C70.7637 27.9793 70.0102 27.9793 69.508 28.1016C69.2568 28.1016 68.8801 28.3462 68.5035 28.5907C67.8756 28.9574 67.2477 29.691 67.1221 30.3022C67.1221 30.4245 66.9965 30.669 66.9965 30.7913C66.9965 31.2802 66.8709 31.647 67.4988 32.1361C67.8756 32.3807 68.0012 32.503 68.2523 32.503Z" fill="white"/>
<path fill-rule="evenodd" clip-rule="evenodd" d="M190.684 54.7537H204.873V45.951H199.096V26.3899H190.684V54.7537ZM159.668 26.2676H151.128V36.2927H147.361V26.2676H138.822V54.7537H147.361V43.3836H151.128V54.6314H159.542V26.2676H159.668ZM175.239 54.7537H189.428V45.951H183.902V26.2676H175.363V54.7537H175.239ZM171.596 26.2676H163.183V54.7537H171.596V26.2676Z" fill="#FAD62E"/>
</svg>
